External Loads File
version=1
nRows=39
nColumns=13
Range=5.000000e-03-10 seconds
endheader
time 	forceRightX 	forceRightY 	forceRightZ 	pointRightX 	pointRightY 	pointRightZ 	forceLeftX 	forceLeftY 	forceLeftZ 	pointLeftX 	pointLeftY 	pointLeftZ 		
0.005000 10.421011 135.066688 -0.000000 0.136019 0.221825 -0.141637 -66.614073 66.785369 -0.000000 0.406170 0.426528 -0.370656
0.010000 11.910530 135.641863 -0.000000 0.136310 0.221248 -0.141670 -66.742370 66.196937 -0.000000 0.405882 0.427162 -0.370645
0.015000 13.318381 136.161613 -0.000000 0.136575 0.220690 -0.141716 -66.815947 65.620762 -0.000000 0.405571 0.427745 -0.370705
0.020000 14.542196 136.563237 -0.000000 0.136895 0.220220 -0.141662 -66.808215 65.057225 -0.000000 0.405287 0.428326 -0.370700
0.025000 15.364709 136.806591 -0.000000 0.137279 0.219478 -0.141533 -66.770598 64.429684 -0.000000 0.404939 0.428895 -0.370734
0.030000 15.887554 136.847638 -0.000000 0.137673 0.218850 -0.141559 -66.632264 63.798971 -0.000000 0.404721 0.429587 -0.370566
0.035000 16.110446 136.695965 -0.000000 0.138034 0.218281 -0.141557 -66.394278 63.167850 -0.000000 0.404403 0.430229 -0.370521
0.040000 16.050431 136.394650 -0.000000 0.138373 0.217702 -0.141579 -66.066124 62.544034 -0.000000 0.404038 0.430885 -0.370574
0.045000 15.780987 135.992365 -0.000000 0.138679 0.217083 -0.141575 -65.645254 61.947115 -0.000000 0.403702 0.431580 -0.370552
0.050000 15.353726 135.539714 -0.000000 0.139042 0.216516 -0.141585 -65.152854 61.360695 -0.000000 0.403215 0.432250 -0.370795
0.055000 14.884002 135.086069 -0.000000 0.139393 0.215852 -0.141586 -64.594100 60.786675 -0.000000 0.402857 0.432901 -0.370770
0.060000 14.430605 134.698392 -0.000000 0.139804 0.215238 -0.141508 -64.004689 60.209245 -0.000000 0.402458 0.433566 -0.370765
0.065000 14.095490 134.429571 -0.000000 0.140173 0.214614 -0.141477 -63.388335 59.655028 -0.000000 0.402144 0.434260 -0.370621
0.070000 13.849312 134.305331 -0.000000 0.140562 0.213977 -0.141502 -62.779920 59.109627 -0.000000 0.401767 0.434972 -0.370652
0.075000 13.714409 134.300477 -0.000000 0.140924 0.213424 -0.141484 -62.162738 58.592926 -0.000000 0.401351 0.435677 -0.370658
0.080000 13.624005 134.378162 -0.000000 0.141296 0.212850 -0.141509 -61.536187 58.085269 -0.000000 0.400950 0.436333 -0.370626
0.085000 13.392698 134.512752 -0.000000 0.141814 0.212086 -0.141218 -60.940427 57.519227 -0.000000 0.400493 0.437068 -0.370676
0.090000 13.239826 134.648813 -0.000000 0.142234 0.211495 -0.141251 -60.256215 57.018739 -0.000000 0.400096 0.437723 -0.370690
0.095000 13.062722 134.786657 -0.000000 0.142641 0.210987 -0.141244 -59.529605 56.564039 -0.000000 0.399651 0.438409 -0.370729
0.100000 12.863289 134.935914 -0.000000 0.143022 0.210376 -0.141284 -58.778891 56.184907 -0.000000 0.399243 0.439117 -0.370667
0.105000 12.688285 135.104485 -0.000000 0.143403 0.209675 -0.141214 -58.015016 55.922937 -0.000000 0.398817 0.439753 -0.370669
0.110000 12.608143 135.292787 -0.000000 0.143815 0.209153 -0.141216 -57.253098 55.801826 -0.000000 0.398395 0.440431 -0.370726
0.115000 12.594958 135.498774 -0.000000 0.144223 0.208532 -0.141205 -56.552921 55.771583 -0.000000 0.397969 0.441056 -0.370779
0.120000 12.670665 135.691694 -0.000000 0.144645 0.207938 -0.141181 -55.938896 55.793569 -0.000000 0.397569 0.441674 -0.370795
0.125000 12.802844 135.828439 -0.000000 0.145007 0.207418 -0.141150 -55.442529 55.812159 -0.000000 0.397165 0.442408 -0.370718
0.130000 12.987498 135.874352 -0.000000 0.145411 0.206832 -0.141274 -55.080224 55.787145 -0.000000 0.396706 0.442934 -0.370880
0.135000 13.215774 135.818176 -0.000000 0.145781 0.206266 -0.141202 -54.859636 55.686237 -0.000000 0.396318 0.443555 -0.370885
0.140000 13.510526 135.651911 -0.000000 0.146187 0.205820 -0.141209 -54.747441 55.513615 -0.000000 0.395916 0.444156 -0.370973
0.145000 13.800715 135.373217 -0.000000 0.146583 0.205177 -0.141151 -54.728683 55.252951 -0.000000 0.395535 0.444712 -0.371000
0.150000 14.137542 134.978163 -0.000000 0.146969 0.204642 -0.141172 -54.744865 54.934212 -0.000000 0.395152 0.445273 -0.370994
0.155000 14.511391 134.492309 -0.000000 0.147309 0.204162 -0.141210 -54.781442 54.551408 -0.000000 0.394781 0.445847 -0.371006
0.160000 14.940789 133.950302 -0.000000 0.147662 0.203762 -0.141216 -54.819449 54.110708 -0.000000 0.394444 0.446353 -0.370963
0.165000 15.367510 133.384541 -0.000000 0.148025 0.203310 -0.141136 -54.862188 53.598921 -0.000000 0.394116 0.446811 -0.370961
0.170000 15.755089 132.805247 -0.000000 0.148376 0.202795 -0.141114 -54.898316 53.015464 -0.000000 0.393769 0.447261 -0.370991
0.175000 16.127052 132.201314 -0.000000 0.148747 0.202355 -0.141166 -54.901002 52.380360 -0.000000 0.393468 0.447726 -0.370949
0.180000 16.485644 131.555392 -0.000000 0.149085 0.202002 -0.141163 -54.864818 51.709538 -0.000000 0.393178 0.448168 -0.370988
0.185000 16.739232 130.859314 -0.000000 0.149385 0.201564 -0.141136 -54.819661 50.998621 -0.000000 0.392821 0.448603 -0.371115
0.190000 16.955708 130.093234 -0.000000 0.149691 0.201196 -0.141168 -54.715592 50.329254 -0.000000 0.392576 0.448979 -0.371106
0.195000 17.061297 129.267082 -0.000000 0.150007 0.200848 -0.141161 -54.549693 49.719627 -0.000000 0.392322 0.449345 -0.371079
